<svg width="40" height="30" viewBox="0 0 40 30" fill="none" xmlns="http://www.w3.org/2000/svg">
<path d="M25.4545 0C27.3834 0 29.2332 0.766231 30.5971 2.13013C31.961 3.49403 32.7273 5.34388 32.7273 7.27273C32.7273 9.20158 31.961 11.0514 30.5971 12.4153C29.2332 13.7792 27.3834 14.5455 25.4545 14.5455C23.5257 14.5455 21.6759 13.7792 20.312 12.4153C18.948 11.0514 18.1818 9.20158 18.1818 7.27273C18.1818 5.34388 18.948 3.49403 20.312 2.13013C21.6759 0.766231 23.5257 0 25.4545 0ZM25.4545 3.45455C24.4419 3.45455 23.4707 3.85682 22.7547 4.57287C22.0386 5.28891 21.6364 6.26008 21.6364 7.27273C21.6364 8.28537 22.0386 9.25654 22.7547 9.97259C23.4707 10.6886 24.4419 11.0909 25.4545 11.0909C27.5636 11.0909 29.2727 9.38182 29.2727 7.27273C29.2727 5.16364 27.5636 3.45455 25.4545 3.45455ZM25.4545 16.3636C30.3091 16.3636 40 18.7818 40 23.6364V29.0909H10.9091V23.6364C10.9091 18.7818 20.6 16.3636 25.4545 16.3636ZM25.4545 19.8182C20 19.8182 14.3636 22.4727 14.3636 23.6364V25.6364H36.5455V23.6364C36.5455 22.4727 30.8545 19.8182 25.4545 19.8182ZM7.27273 16.8727L2.72727 19.5818L3.96364 14.4727L0 11.0545L5.21818 10.6L7.27273 5.8L9.29091 10.6L14.5455 11.0545L10.5455 14.4727L11.7273 19.5818L7.27273 16.8727Z" fill="#C1D05B"/>
</svg>
