<svg width="35" height="38" viewBox="0 0 35 38" fill="none" xmlns="http://www.w3.org/2000/svg">
<path d="M28.3938 4.63125C28.2438 4.63125 28.0938 4.59375 27.9625 4.51875C24.3625 2.6625 21.25 1.875 17.5 1.875C13.8063 1.875 10.2813 2.75625 7.075 4.51875C6.625 4.7625 6.0625 4.59375 5.8 4.14375C5.55625 3.69375 5.725 3.1125 6.175 2.86875C9.6625 0.9375 13.4875 0 17.5 0C21.5125 0 25 0.88125 28.825 2.8125C29.2938 3.09375 29.4625 3.65625 29.2188 4.10625C29.05 4.44375 28.75 4.63125 28.3938 4.63125ZM1.5625 14.475C1.375 14.475 1.1875 14.4188 1.01875 14.3063C0.625003 14.0063 0.493753 13.425 0.793753 12.9938C2.65 10.3688 5.0125 8.30625 7.825 6.8625C13.75 3.825 21.25 3.80625 27.1562 6.84375C29.9687 8.2875 32.3313 10.3125 34.1875 12.9375C34.4875 13.35 34.375 13.95 33.9625 14.25C33.5313 14.55 32.95 14.4563 32.65 14.0625C30.9625 11.6625 28.825 9.80625 26.2938 8.5125C20.9125 5.75625 14.0313 5.75625 8.66875 8.53125C6.11875 9.84375 3.98125 11.7188 2.29375 14.0625C2.14375 14.3438 1.8625 14.475 1.5625 14.475ZM13.2813 37.1063C13.0375 37.1063 12.8125 37.0125 12.625 36.825C10.9938 35.1938 10.1125 34.1438 8.85625 31.875C7.5625 29.5688 6.8875 26.7563 6.8875 23.7375C6.8875 18.1688 11.65 13.6313 17.5 13.6313C23.35 13.6313 28.1125 18.1688 28.1125 23.7375C28.1125 23.9861 28.0137 24.2246 27.8379 24.4004C27.6621 24.5762 27.4236 24.675 27.175 24.675C26.9264 24.675 26.6879 24.5762 26.5121 24.4004C26.3363 24.2246 26.2375 23.9861 26.2375 23.7375C26.2375 19.2 22.3188 15.5063 17.5 15.5063C12.6813 15.5063 8.7625 19.2 8.7625 23.7375C8.7625 26.4375 9.3625 28.9313 10.5063 30.9375C11.7063 33.1125 12.5313 34.0313 13.975 35.4938C14.3313 35.8688 14.3313 36.45 13.975 36.825C13.75 37.0125 13.525 37.1063 13.2813 37.1063ZM26.725 33.6375C24.4938 33.6375 22.525 33.075 20.9125 31.9688C18.1188 30.075 16.45 27 16.45 23.7375C16.45 23.4889 16.5488 23.2504 16.7246 23.0746C16.9004 22.8988 17.1389 22.8 17.3875 22.8C17.6361 22.8 17.8746 22.8988 18.0504 23.0746C18.2262 23.2504 18.325 23.4889 18.325 23.7375C18.325 26.3813 19.675 28.875 21.9625 30.4125C23.2938 31.3125 24.85 31.7438 26.725 31.7438C27.175 31.7438 27.925 31.6875 28.675 31.5563C29.1812 31.4625 29.6875 31.8 29.7625 32.325C29.8563 32.8125 29.5187 33.3188 28.9937 33.4125C27.925 33.6188 26.9875 33.6375 26.725 33.6375ZM22.9563 37.5C22.8813 37.5 22.7875 37.5 22.7125 37.5C19.7313 36.6375 17.7813 35.5313 15.7375 33.525C13.1125 30.9375 11.6688 27.45 11.6688 23.7375C11.6688 20.7 14.2563 18.225 17.4438 18.225C20.6313 18.225 23.2188 20.7 23.2188 23.7375C23.2188 25.7438 25 27.375 27.1187 27.375C29.275 27.375 31.0187 25.7438 31.0187 23.7375C31.0187 16.6688 24.925 10.9313 17.425 10.9313C12.1 10.9313 7.1875 13.8938 5.03125 18.4875C4.3 20.0063 3.925 21.7875 3.925 23.7375C3.925 25.2 4.05625 27.5063 5.18125 30.5063C5.36875 30.9938 5.125 31.5375 4.6375 31.7063C4.15 31.875 3.60625 31.6313 3.4375 31.1625C2.5 28.7063 2.06875 26.25 2.06875 23.7375C2.06875 21.4875 2.5 19.4438 3.34375 17.6625C5.8375 12.4313 11.3688 9.0375 17.425 9.0375C25.9375 9.0375 32.8937 15.6188 32.8937 23.7188C32.8937 26.7563 30.3062 29.2313 27.1187 29.2313C23.9312 29.2313 21.3438 26.7563 21.3438 23.7188C21.3438 21.7125 19.6 20.0813 17.4438 20.0813C15.2875 20.0813 13.5438 21.7125 13.5438 23.7188C13.5438 26.925 14.7813 29.925 17.05 32.175C18.8313 33.9375 20.5375 34.9125 23.1813 35.625C23.6875 35.775 23.9688 36.3 23.8375 36.7875C23.7438 37.2188 23.35 37.5 22.9563 37.5Z" fill="#C1D05B"/>
</svg>
